<?xml version="1.0" encoding="UTF-8" standalone="no"?>
<!-- Created with Inkscape (http://www.inkscape.org/) -->

<svg
   version="1.1"
   id="svg2708"
   width="622.2735"
   height="2692.469"
   viewBox="0 0 622.2735 2692.469"
   sodipodi:docname="Snake6c.svg"
   inkscape:version="1.2.2 (732a01da63, 2022-12-09, custom)"
   xmlns:inkscape="http://www.inkscape.org/namespaces/inkscape"
   xmlns:sodipodi="http://sodipodi.sourceforge.net/DTD/sodipodi-0.dtd"
   xmlns="http://www.w3.org/2000/svg"
   xmlns:svg="http://www.w3.org/2000/svg">
  <defs
     id="defs2712" />
  <sodipodi:namedview
     id="namedview2710"
     pagecolor="#ffffff"
     bordercolor="#000000"
     borderopacity="0.25"
     inkscape:showpageshadow="2"
     inkscape:pageopacity="0.0"
     inkscape:pagecheckerboard="0"
     inkscape:deskcolor="#d1d1d1"
     showgrid="false"
     inkscape:zoom="0.3033708"
     inkscape:cx="273.59258"
     inkscape:cy="1364.6666"
     inkscape:window-width="1920"
     inkscape:window-height="1031"
     inkscape:window-x="0"
     inkscape:window-y="25"
     inkscape:window-maximized="1"
     inkscape:current-layer="layer1" />
  <g
     inkscape:groupmode="layer"
     id="layer1"
     inkscape:label="Layer 1"
     transform="translate(-9.9519976,-1.3559355)">
    <path
       id="path3189"
       style="fill:#000000;stroke-width:1.33333"
       d="M 390.50669 1.363748 C 372.97283 1.1550527 348.38246 5.7064246 333.73325 12.75242 C 325.53677 16.694771 321.09438 20.207171 309.10044 32.232889 C 293.17006 48.2054 283.85839 53.953005 274.00083 53.893045 C 271.0675 53.875202 261.97774 51.363302 253.80161 48.311014 C 228.85431 38.997775 216.30313 38.415026 201.56137 45.885232 C 192.65621 50.397821 183.44557 60.90204 181.33286 68.955545 C 178.43677 79.995082 178.09395 101.00412 180.56919 115.80711 C 183.0017 130.35472 185.45819 139.70143 195.68051 173.3325 C 205.7175 206.35373 206.33739 201.99375 190.31919 211.05515 C 159.41351 228.53834 130.24878 253.7039 110.47934 279.94578 C 97.212712 297.55586 82.824187 325.94863 77.682466 344.66648 C 74.347562 356.80684 74.029194 359.96888 74.112154 380.00047 C 74.208367 403.23133 75.854161 413.63567 81.520357 426.80711 C 87.722266 441.22381 102.35865 448.70254 118.15708 445.52976 C 122.34908 444.68788 126.23557 444.00047 126.79379 444.00047 C 127.35204 444.00047 128.22766 447.44985 128.74106 451.66648 C 132.1903 479.99563 148.62208 490.28522 188.50278 489.08836 L 202.53208 488.66648 L 203.22544 496.66648 C 203.60692 501.06648 204.55556 512.46718 205.33481 522.00047 C 207.12139 543.85721 211.07235 573.9877 216.08676 604.00047 C 218.23091 616.83373 219.98901 628.54536 219.99301 630.02586 C 219.99791 631.89608 216.43848 635.23469 208.33286 640.96726 C 190.63604 653.48303 156.92363 680.74636 139.73911 696.43797 C 65.30425 764.40608 23.243387 838.52321 12.819185 920.09226 C -0.2901429 1022.6724 31.785139 1131.4202 104.02817 1229.3325 C 128.46687 1262.4549 158.9661 1294.5146 212.577 1343.4321 L 243.15512 1371.3325 L 242.577 1381.3325 C 241.45256 1400.7913 242.64281 1429.071 245.96762 1461.9302 C 247.81877 1480.2243 249.33286 1500.2669 249.33286 1506.4692 C 249.33286 1517.3836 249.2535 1517.6753 246.85044 1515.5005 C 242.30216 1511.3843 236.23467 1510.5325 227.52426 1512.7895 C 192.16603 1521.9518 179.42736 1549.3171 192.89536 1587.1821 C 194.7506 1592.3981 201.27463 1606.7128 207.3934 1618.9907 C 226.10726 1656.5416 233.37957 1684.048 236.00669 1727.2368 C 237.49343 1751.6788 237.72266 1791.467 236.46958 1807.563 L 235.61997 1818.4614 L 216.40903 1833.3052 C 144.94358 1888.5237 110.10692 1927.1237 84.618013 1979.3325 C 73.651911 2001.7945 68.293605 2016.2499 62.627779 2038.6665 C 48.000239 2096.5395 51.244727 2131.4967 75.930513 2182.0005 C 94.847644 2220.7019 129.25391 2264.7625 166.16294 2297.5532 C 180.23889 2310.0584 234.80986 2353.9884 251.66684 2366.3852 C 261.46916 2373.594 260.8429 2368.9184 257.77231 2412.0512 C 254.93593 2451.8944 254.54141 2529.511 257.10044 2544.0005 C 265.86632 2593.6335 283.54139 2623.3327 334.31919 2673.7407 C 346.33512 2685.6693 353.09987 2691.3689 356.76059 2692.6509 C 362.63876 2694.7096 367.01092 2694.1001 372.15708 2690.5063 C 378.34797 2686.1829 379.37178 2681.4233 377.53989 2665.4614 C 369.58273 2596.1281 364.02103 2508.2766 364.00473 2451.647 L 364.00083 2434.6274 L 371.68637 2438.5083 C 396.3135 2450.94 443.07812 2468.3357 481.38754 2479.3149 C 533.25708 2494.1804 612.73863 2508.8938 621.52036 2505.2563 C 632.12232 2500.8649 635.71886 2486.8203 628.33286 2478.6567 C 625.24303 2475.2416 621.62462 2473.7599 605.33286 2469.2466 C 514.25894 2444.0159 439.92964 2411.2835 377.53403 2368.9282 L 363.7352 2359.561 L 364.52036 2338.1137 C 364.95206 2326.3181 365.64299 2304.6672 366.05551 2290.0005 C 367.19732 2249.4037 370.39926 2175.5206 374.00083 2106.6665 C 375.78446 2072.5665 378.89224 2011.4467 380.90708 1970.8442 C 384.41991 1900.0538 384.68266 1896.9533 387.28598 1895.3637 C 388.77914 1894.452 398.40022 1888.7219 408.66684 1882.6294 C 449.73175 1858.26 472.20029 1841.404 497.33286 1816.1137 C 517.73052 1795.5885 529.65625 1779.5979 541.1727 1757.3325 C 560.19528 1720.5549 567.82808 1684.1991 566.22544 1638.0005 C 565.381 1613.6587 563.01409 1595.2277 558.00473 1574.0005 C 540.75743 1500.9131 497.01184 1427.3484 421.25278 1344.0239 L 407.33286 1328.7134 L 407.35434 1304.022 C 407.38494 1267.9616 410.65047 1255.74 431.40708 1214.0005 C 446.77501 1183.0969 450.4914 1172.0731 453.87973 1147.3325 C 459.35341 1107.3656 459.63909 1106.2102 471.97739 1074.1001 C 485.22363 1039.6266 483.77331 1020.6613 466.61215 1003.9458 C 459.17983 996.70639 441.08638 987.14155 427.53794 983.28758 C 420.20507 981.20162 419.3745 981.2086 413.53794 983.40476 C 400.71002 988.23167 392.72014 995.8662 383.26645 1012.3325 C 380.42453 1017.2825 377.70875 1021.3325 377.23129 1021.3325 C 375.51472 1021.3325 374.66607 1008.5052 374.68637 982.81297 C 374.70984 953.06876 375.33825 942.50825 382.62387 849.3325 C 385.5196 812.29933 388.59559 770.89902 389.45786 757.3325 C 390.8303 735.73905 391.33834 732.44737 393.53794 730.90672 C 408.87375 720.16508 448.92724 684.27838 470.03989 662.36375 C 552.43942 576.83419 594.18365 491.81189 590.0184 418.00047 C 585.21336 332.85097 544.4008 261.23719 474.00083 214.4282 C 464.45343 208.08015 427.72146 188.57334 421.25669 186.41844 C 419.83642 185.94502 421.73977 157.83863 426.02426 116.00047 C 431.12447 66.197729 431.09655 40.069071 425.92661 25.008279 C 422.72539 15.682686 413.48026 6.0396086 405.05942 3.2426543 C 401.41233 2.0312893 396.35128 1.433313 390.50669 1.363748 z M 396.34262 399.49656 C 396.91316 399.49012 397.89495 400.68285 400.03012 403.36961 C 405.96476 410.83737 410.75133 421.99339 413.06723 433.74851 C 416.95291 453.47167 411.60948 471.87101 395.86411 492.98289 C 391.90567 498.29048 388.18987 502.64186 387.60629 502.65086 C 385.51465 502.68335 392.22994 415.62728 395.40512 401.55125 C 395.70274 400.23184 395.89887 399.50157 396.34262 399.49656 z M 217.90903 872.24265 C 218.43745 872.39634 218.66825 873.33665 218.67075 875.00047 C 218.67319 876.65047 221.07237 887.90049 224.00083 900.00047 C 228.65902 919.2475 229.32495 923.96119 229.32895 937.6782 L 229.33286 953.35789 L 222.84458 957.35008 C 211.42572 964.37616 206.83911 973.31903 205.75669 990.66648 C 204.82956 1005.5249 207.34164 1015.9984 216.59653 1035.854 L 223.81137 1051.3325 L 223.06333 1071.3325 C 222.25567 1092.8988 223.76959 1113.2604 228.04184 1138.2505 C 229.49941 1146.7763 230.49269 1153.952 230.24692 1154.1977 C 229.56031 1154.8843 217.23827 1137.8561 210.32504 1126.6665 C 194.43061 1100.9399 183.99033 1068.9384 179.92856 1033.4848 C 177.52888 1012.5392 178.98426 968.26662 182.62778 951.3325 C 188.0602 926.08389 196.51846 904.5492 209.34458 883.31492 C 214.14154 875.3733 216.74651 871.90455 217.90903 872.24265 z M 395.97544 1566.7368 C 395.99392 1566.7342 396.01213 1566.7493 396.03012 1566.7817 C 398.71408 1571.6154 406.71924 1598.0644 408.73325 1608.7524 C 409.96796 1615.3048 411.01377 1626.6671 411.05747 1634.0005 C 411.14755 1649.0889 409.00888 1658.0828 402.03989 1671.9204 C 399.61719 1676.7308 396.40552 1682.1671 394.90317 1684.0005 L 392.1727 1687.3325 L 392.76254 1666.0005 C 393.08772 1654.2671 393.72091 1626.7184 394.16879 1604.7817 C 394.60269 1583.5305 395.40255 1566.8179 395.97544 1566.7368 z M 227.95395 1993.3325 C 228.50449 1993.3325 229.3157 2008.7832 229.75473 2027.6665 C 230.66858 2066.9721 232.27221 2081.7064 240.56137 2126.9028 C 247.26483 2163.4535 252.15365 2197.1379 255.3602 2228.8637 C 258.63344 2261.2497 259.04114 2260.8891 243.33286 2239.4809 C 210.42836 2194.6372 191.15683 2156.5263 183.19614 2120.5552 C 179.74551 2104.9632 180.04589 2076.1473 183.80551 2062.0005 C 187.39885 2048.4797 196.51962 2029.8893 205.15708 2018.4848 C 212.77897 2008.4216 226.45459 1993.3325 227.95395 1993.3325 z " />
    <path
       id="path3226"
       style="fill:#ffcc00;stroke-width:1.33333"
       d="M 329.06333 204.29734 C 313.24968 204.82998 296.84163 207.16106 279.51254 211.27781 C 228.55816 223.38265 177.66564 252.89903 147.02817 288.11765 C 129.78539 307.9387 116.65221 331.10529 110.4227 352.68992 C 107.91585 361.37587 107.36676 366.3978 107.43442 380.00047 C 107.53192 399.59283 109.72804 412.00047 113.09848 412.00047 C 114.33216 412.00047 119.38559 410.84327 124.327 409.43015 C 144.71059 403.60097 153.19159 404.66151 158.72153 413.73094 C 160.81587 417.16573 161.32679 420.47404 161.34262 430.66648 C 161.36742 446.61923 162.39968 452.93657 165.16098 454.03562 C 166.35557 454.51109 173.16305 455.23357 180.28794 455.64109 C 195.99403 456.53944 207.44966 454.15779 223.65317 446.62547 C 244.44257 436.96136 256.32882 427.93743 284.00083 400.8032 C 312.57633 372.78302 325.61241 362.91063 344.00083 355.3657 C 353.21359 351.58562 357.08936 350.7117 364.71958 350.69187 C 400.75854 350.59817 433.554 379.00603 444.81723 420.07664 C 448.11114 432.08763 448.1326 458.84898 444.85825 470.5864 C 438.84113 492.15517 424.65989 513.88525 401.3309 537.28367 C 376.01209 562.67782 350.92743 581.96423 266.00083 641.32859 C 202.8972 685.43852 173.54932 709.16079 141.23715 742.17625 C 84.168551 800.48695 54.604811 858.1335 45.27231 929.3032 C 43.32119 944.18246 43.326059 983.71833 45.282076 1001.3325 C 55.67443 1094.9169 104.12558 1189.6483 182.00083 1268.6489 C 189.33416 1276.0882 206.73353 1292.4833 220.66684 1305.0825 L 246.00083 1327.9907 L 247.077 1320.3286 C 247.66937 1316.1145 247.88627 1296.4665 247.55942 1276.6665 C 247.23255 1256.8665 246.23746 1235.5659 245.34653 1229.3325 L 243.72544 1218.0005 L 227.4559 1201.3325 C 207.0508 1180.4295 201.45048 1173.7136 188.81528 1154.9927 C 161.91992 1115.1433 148.92822 1074.778 145.27036 1019.6958 C 142.90817 984.12456 147.22992 947.08743 157.36997 916.00047 C 162.65389 899.80121 176.31953 871.88598 186.0809 857.35008 C 202.35711 833.1127 224.66945 809.25287 250.31333 788.66453 C 263.52957 778.0538 301.11584 752.4749 332.99692 732.39695 C 388.79477 697.2568 452.5676 637.97177 494.21372 582.5239 C 522.39639 545.00134 543.25441 504.02051 551.33676 470.28953 C 556.30785 449.54316 557.57056 434.65331 556.05161 414.69383 C 553.54993 381.82095 547.24682 358.35489 533.30551 330.00047 C 508.14528 278.82852 461.85354 238.05013 404.67661 216.69187 C 380.12203 207.51959 355.41941 203.40962 329.06333 204.29734 z M 408.66684 1379.8247 L 407.59262 1388.2466 C 407.0023 1392.8782 404.45107 1411.2415 401.9227 1429.0552 C 399.39434 1446.869 396.7019 1468.6384 395.93833 1477.4321 L 394.54965 1493.4204 L 403.31333 1507.9653 C 427.8162 1548.6331 441.91755 1588.8598 444.69223 1626.0005 C 447.52124 1663.8684 431.94244 1698.5941 396.00083 1734.5356 C 376.25681 1754.2797 355.2887 1771.2369 294.69223 1816.4673 C 212.34843 1877.9301 190.14408 1896.0973 165.14926 1922.4575 C 120.82746 1969.2005 94.894045 2023.8819 87.901216 2085.3325 C 85.064123 2110.264 90.976869 2136.9465 106.15122 2167.6899 C 128.77866 2213.5332 165.95731 2255.6787 226.66684 2304.3032 C 244.63348 2318.6933 259.4835 2330.5121 259.66684 2330.5669 C 259.85017 2330.6219 260.00083 2326.8652 260.00083 2322.2192 L 260.00083 2313.772 L 244.52622 2295.2192 C 211.95079 2256.1628 190.38932 2224.4078 173.52231 2190.645 C 142.47775 2128.5031 138.49177 2075.0118 161.32895 2027.0102 C 179.10766 1989.6412 208.06183 1961.0759 264.00083 1925.7153 C 275.37233 1918.5269 293.82463 1908.1493 361.33286 1870.9829 C 449.09078 1822.6681 491.2112 1785.3388 515.20395 1734.6098 C 543.50632 1674.769 537.97555 1590.5682 500.69028 1513.6587 C 481.60795 1474.2969 459.49685 1441.1571 422.66489 1396.7153 L 408.66684 1379.8247 z " />
    <path
       style="fill:#0000ff;stroke-width:1.33333"
       d="m 197.99999,330.17721 c -5.38705,-2.50889 -12.07357,-9.74592 -14.59909,-15.80105 -5.17911,-12.41732 -0.14013,-28.7627 11.05589,-35.86302 4.9815,-3.15916 7.5077,-3.84256 14.13758,-3.82454 10.01638,0.0272 16.95673,3.62269 22.66183,11.74008 3.40718,4.84781 4.10463,7.22796 4.48978,15.32201 0.38577,8.10676 -0.0373,10.50673 -2.74736,15.58264 -4.78222,8.95725 -12.43953,13.77985 -22.69272,14.29195 -5.14743,0.25709 -9.82699,-0.29356 -12.30591,-1.44807 z"
       id="path3228" />
    <path
       id="path3236"
       style="fill:#552200;stroke-width:1.33333"
       d="M 387.70004 34.676248 C 379.55492 34.690648 366.12822 36.955808 355.56333 40.098123 C 347.02306 42.638252 345.45347 43.773844 330.22934 58.416482 C 318.54969 69.650048 311.38373 75.389906 304.66684 78.893045 C 283.3567 90.007156 271.61258 90.476366 246.59848 81.213357 C 229.45719 74.865744 219.47783 73.34625 215.33286 76.453592 C 212.91811 78.263838 212.67626 79.943856 212.76645 94.227029 C 212.88098 112.36663 213.67677 116.16002 226.35629 158.98484 C 233.51805 183.17348 235.73724 189.15411 237.33286 188.56101 C 238.43286 188.15213 245.98326 185.79868 254.1102 183.3325 C 271.14732 178.16245 290.71612 174.21067 310.55942 171.93015 C 327.81932 169.94653 363.85277 171.00878 376.57504 173.87742 C 381.65779 175.02347 386.09032 175.68637 386.42661 175.35008 C 386.7629 175.01378 387.56422 168.57214 388.2059 161.03562 C 388.84758 153.49912 390.86376 131.6998 392.68637 112.59226 C 396.1007 76.7976 396.98464 44.095351 394.70004 38.086404 C 393.58312 35.148635 392.59586 34.667596 387.70004 34.676248 z M 361.28598 385.3325 C 356.86723 385.3325 348.81656 391.65974 314.62778 421.99461 C 277.37815 455.04529 260.87956 467.94658 246.89536 474.96531 L 235.79184 480.53953 L 236.64926 493.27 C 239.64014 537.64081 249.17119 609.3325 252.07895 609.3325 C 252.70523 609.3325 264.49447 601.42284 278.27622 591.75437 C 308.86417 570.29564 330.84245 554.14509 343.66684 543.70164 L 353.33286 535.82859 L 353.33286 514.89109 C 353.33286 483.5263 356.54845 439.45003 361.81333 398.65086 C 363.39773 386.37269 363.35756 385.3325 361.28598 385.3325 z M 355.40512 758.9614 C 353.87929 757.43557 291.22658 799.09926 273.33286 813.53953 C 251.43224 831.21338 253.62926 828.02751 251.89536 844.62547 C 250.06204 862.17506 250.60355 867.52626 256.71372 892.27976 C 264.30705 923.04184 265.45585 944.61712 260.45981 962.66648 C 258.00569 971.53258 253.64961 977.56317 246.22544 982.37351 C 238.63896 987.28903 238.49025 987.5834 239.01059 996.66648 C 239.34881 1002.5704 240.97214 1007.9846 245.20786 1017.3325 C 257.26063 1043.9322 256.44147 1039.7883 256.68833 1075.3325 C 256.93932 1111.4684 257.44932 1115.526 268.50278 1169.3325 C 280.00697 1225.3331 280.67329 1231.7868 280.62583 1286.6665 C 280.59513 1322.0411 279.96008 1340.737 278.1102 1360.6665 C 274.82853 1396.0209 275.08765 1416.4039 279.35044 1458.0005 C 283.6016 1499.4836 284.10562 1530.5549 280.82895 1549.0981 C 279.62069 1555.936 277.77078 1563.1982 276.71762 1565.2348 C 274.00831 1570.474 268.31723 1573.7778 262.00083 1573.7778 C 255.58028 1573.7778 250.39559 1570.6981 246.6727 1564.6743 C 243.72999 1559.9129 230.47436 1548.0005 228.11997 1548.0005 C 227.32026 1548.0005 225.46749 1549.1999 224.00083 1550.6665 C 217.56223 1557.1052 221.60341 1572.6404 238.48129 1606.3169 C 261.94799 1653.1402 268.73633 1684.4888 270.23129 1752.9497 C 270.8348 1780.5871 271.50664 1791.6493 272.54184 1791.0356 C 273.34427 1790.5599 286.90019 1780.4417 302.66684 1768.5512 C 318.43349 1756.6609 337.12439 1742.1162 344.202 1736.229 L 357.06919 1725.5239 L 357.8934 1713.0962 C 358.9754 1696.7646 361.32848 1566.1933 361.33676 1522.0005 C 361.34476 1482.5291 362.34903 1469.2502 368.66098 1425.3325 C 375.74893 1376.0154 376.59242 1363.2777 374.61606 1335.3149 C 372.38696 1303.7762 373.4896 1277.1683 377.79379 1258.647 C 382.19047 1239.7276 388.14834 1224.8085 402.37192 1197.0962 C 415.6057 1171.3123 418.21455 1162.8534 422.01645 1133.395 C 425.23554 1108.4524 427.7024 1096.9084 432.75473 1083.143 C 435.27328 1076.2812 439.48948 1064.8165 442.12387 1057.6665 C 444.82955 1050.323 447.00515 1041.8462 447.12387 1038.1841 C 447.31722 1032.2202 446.92705 1031.3484 442.25278 1027.3052 C 435.53778 1021.4967 423.11325 1016.4011 420.16684 1018.2466 C 418.97457 1018.9934 414.50542 1025.5445 410.23325 1032.8032 C 400.76999 1048.8818 396.37993 1053.603 386.14145 1058.7192 C 372.19506 1065.6883 360.83338 1062.8141 352.34653 1050.1723 C 343.58879 1037.127 341.39202 1023.4821 341.37192 982.00047 C 341.35682 950.92761 342.72812 926.70728 348.65708 853.3325 C 353.57667 792.44916 355.9333 759.48957 355.40512 758.9614 z M 349.47348 1916.0005 C 346.98199 1916.0005 285.22138 1951.6138 270.16489 1961.7309 L 262.32895 1966.9946 L 263.07504 2012.4966 C 263.8748 2061.3826 265.27 2077.0055 271.96762 2112.0005 C 292.77153 2220.7005 298.30682 2309.4069 291.02036 2417.3325 C 287.87623 2463.9028 287.89409 2527.4525 291.05551 2543.3325 C 297.14839 2573.9373 308.28476 2595.6159 331.66684 2622.3911 C 335.69735 2627.0065 339.22562 2630.5511 339.50864 2630.268 C 339.79168 2629.985 339.44602 2624.1083 338.73911 2617.2095 C 333.57917 2566.8496 330.68553 2493.4602 330.67661 2412.6665 C 330.66591 2315.8666 332.81288 2253.0653 342.65903 2062.0005 C 349.43351 1930.5414 350.11219 1916.0001 349.47348 1916.0005 z " />
  </g>
</svg>
